<svg width="696" height="705" viewBox="0 0 696 705" fill="none" xmlns="http://www.w3.org/2000/svg">
<path d="M620.691 313.2C648.277 478.852 538.542 635.066 375.69 662.186C212.838 689.306 58.4001 577.084 30.814 411.432C3.22802 245.779 112.963 89.5648 275.815 62.4451C438.667 35.3254 593.105 147.547 620.691 313.2Z" fill="#A3A4B3" stroke="#2D378F" stroke-width="5"/>
<path d="M192.308 551.924L182.858 519.58L192.849 512.641L206.8 565.273L196.578 572.372L178.33 549.732L185.807 579.852L175.585 586.951L144.279 546.371L153.895 539.693L172.621 565.425L164.117 532.595L172.52 526.759L192.308 551.924ZM213.168 519.589C213.612 515.257 215.369 512.054 218.437 509.98C221.628 507.878 224.744 507.413 227.783 508.584C230.841 509.742 233.475 512.364 235.685 516.45L245.927 538.101L236.427 544.698L226.134 522.912C225.756 522.204 225.347 521.575 224.908 521.024C223.45 519.212 221.709 518.965 219.686 520.284C217.946 521.436 216.86 523.118 216.427 525.33L228.024 550.534L218.524 557.131L195.431 507.424L204.932 500.826L213.168 519.589ZM271.11 508.97L257.682 518.295L259.412 528.736L248.526 536.296L241.591 478.791L250.89 472.334L287.855 508.983L277.575 516.122L271.11 508.97ZM255.944 507.903L264.665 501.846L252.75 488.634L255.944 507.903ZM302.035 448.415L289.791 456.918L307.635 495.247L297.73 502.125L279.916 463.776L267.874 472.138L263.826 463.35L297.958 439.647L302.035 448.415ZM356.352 449.773L342.925 459.097L344.654 469.538L333.768 477.099L326.834 419.594L336.132 413.137L373.097 449.786L362.817 456.925L356.352 449.773ZM341.186 448.705L349.907 442.649L337.992 429.437L341.186 448.705ZM385.539 378.825L395.414 371.967L410.539 404.223C412.87 408.854 413.416 413.482 412.177 418.109C410.945 422.703 408.281 426.365 404.184 429.096C400.069 431.84 396.093 432.832 392.255 432.072C388.437 431.3 385.129 428.775 382.33 424.498L392.312 417.609L393.696 419.601C395.364 421.838 397.286 422.244 399.463 420.818C402.391 418.87 402.736 415.506 400.5 410.724L385.539 378.825ZM441.386 403.218C436.949 406.157 432.443 407.146 427.867 406.186C423.291 405.226 419.205 402.528 415.61 398.09C413.813 395.914 412.111 393.073 410.504 389.566C408.883 386.041 407.869 382.465 407.462 378.838C407.055 375.211 407.312 371.78 408.232 368.544C409.767 363.112 412.898 358.827 417.623 355.688C420.531 353.754 423.495 352.68 426.514 352.467C429.54 352.221 432.519 352.834 435.453 354.306C438.387 355.778 441.01 357.952 443.321 360.827C444.959 362.857 446.515 365.385 447.99 368.413C449.471 371.408 450.515 374.535 451.123 377.794C451.737 381.02 451.823 384.185 451.381 387.288C450.94 390.391 449.913 393.33 448.301 396.104C446.696 398.846 444.39 401.217 441.386 403.218ZM433.356 367.618C429.821 362.94 426.216 361.734 422.54 364.001C419.713 365.765 418.206 368.423 418.02 371.977C417.821 375.511 418.99 379.721 421.527 384.608C423.087 387.634 424.443 389.874 425.595 391.328C429.183 396.084 432.814 397.286 436.489 394.934C438.917 393.418 440.357 391.177 440.808 388.21C441.245 385.224 440.65 381.757 439.021 377.809C437.378 373.842 435.49 370.445 433.356 367.618ZM463.537 386.979L441.616 339.882L455.005 330.626C460.294 326.982 464.925 325.249 468.901 325.427C472.877 325.605 475.993 327.565 478.248 331.306C481.035 335.934 480.788 340.757 477.509 345.773C479.546 345.214 481.546 345.381 483.507 346.273C485.473 347.133 487.125 348.669 488.461 350.88C491.012 355.129 491.577 359.374 490.156 363.614C488.753 367.84 485.502 371.725 480.4 375.268L463.537 386.979ZM464.118 360.081L469.355 371.382L475.295 367.3C477.143 366.016 478.369 364.494 478.972 362.734C479.563 360.954 479.445 359.224 478.62 357.543C476.927 353.953 474.525 353.124 471.415 355.056L464.118 360.081ZM460.632 352.657L465.301 349.457C469.527 346.38 470.79 343.063 469.091 339.506C467.36 336.028 464.621 335.576 460.873 338.151L455.598 341.772L460.632 352.657ZM525.996 343.603L516.12 350.462L494.228 303.345L504.075 296.507L525.996 343.603ZM567.173 315.007L557.615 321.645L529.137 302.087L542.946 331.832L533.07 338.69L511.149 291.593L520.794 284.896L549.243 304.474L535.405 274.749L545.281 267.89L567.173 315.007ZM309.548 575.043L316.971 591.033L307.095 597.891L285.174 550.794L300.296 540.335C304.974 537.086 309.554 535.832 314.034 536.573C318.534 537.3 322.058 539.847 324.605 544.213C326.339 547.203 327.139 550.286 327.004 553.461C326.869 556.637 325.883 559.675 324.047 562.577C322.229 565.466 319.713 568.027 316.498 570.259L309.548 575.043ZM305.47 566.275L311.459 562.202C313.921 560.406 315.275 558.268 315.521 555.786C315.753 553.285 314.939 550.983 313.078 548.879C312.109 547.812 311.015 547.202 309.796 547.049C308.583 546.864 307.344 547.154 306.077 547.92L299.156 552.683L305.47 566.275ZM352.403 544.426L346.916 548.236L354.625 564.883L344.749 571.741L322.829 524.644L337.691 514.366C342.446 511.064 346.879 509.64 350.99 510.095C355.107 510.518 358.368 512.747 360.772 516.785C362.672 519.973 363.548 523.103 363.398 526.175C363.235 529.227 362.169 532.294 360.199 535.374L377.529 548.249L377.87 548.74L367.331 556.06L352.403 544.426ZM342.81 539.488L348.626 535.535C350.204 534.439 351.304 533.105 351.924 531.533C352.563 529.947 352.672 528.316 352.25 526.64C351.815 524.945 351.057 523.546 349.976 522.441C348.107 520.572 345.958 520.395 343.53 521.91L336.81 526.534L342.81 539.488ZM401.696 520.552L388.269 529.877L389.998 540.318L379.112 547.878L372.178 490.373L381.476 483.916L418.441 520.565L408.161 527.704L401.696 520.552ZM386.53 519.484L395.251 513.428L383.336 500.216L386.53 519.484ZM452.477 489.267C452.182 492.211 450.877 495.243 448.564 498.362C446.236 501.462 443.214 504.26 439.497 506.756C435.948 509.164 432.359 510.344 428.73 510.296C425.101 510.247 421.691 509.035 418.499 506.657C415.307 504.28 412.601 500.98 410.382 496.757L409.41 494.864C405.763 487.723 404.464 480.963 405.514 474.585C406.582 468.193 409.835 463.18 415.273 459.546C420.023 456.361 424.509 455.116 428.728 455.809C432.948 456.503 436.806 459.059 440.304 463.479L430.812 470.027C429.113 467.869 427.412 466.611 425.708 466.253C424.024 465.882 422.267 466.289 420.436 467.474C417.713 469.223 416.247 471.796 416.038 475.194C415.816 478.573 416.798 482.513 418.984 487.017C420.851 490.856 422.53 493.685 424.021 495.503C427.532 499.942 431.251 500.84 435.18 498.197C437.556 496.605 439.221 494.606 440.177 492.202L436.924 484.745L430.08 489.497L426.46 481.696L443.179 470.085L452.477 489.267ZM470.847 421.851L485.22 452.532C487.848 457.755 488.485 462.863 487.13 467.855C485.794 472.835 482.635 476.998 477.654 480.343C474.553 482.411 471.442 483.601 468.32 483.914C465.186 484.208 462.284 483.583 459.615 482.041C456.952 480.466 454.771 478.086 453.072 474.9L438.679 444.19L448.613 437.292L463.054 468.011C463.607 469.053 464.223 469.981 464.902 470.794C465.987 472.152 467.199 472.951 468.536 473.192C469.893 473.42 471.323 473.055 472.826 472.096C477.155 469.29 478.001 465.064 475.364 459.419L460.972 428.709L470.847 421.851ZM515.075 427.047L499.627 437.776L504.824 449.019L523.102 436.325L527.159 445.064L499.005 464.616L477.084 417.519L505.296 397.927L509.374 406.695L491.066 419.409L495.663 429.357L511.141 418.608L515.075 427.047Z" fill="#2D378F"/>
<path d="M265.418 212.479L227.556 293.521L164.269 240.031L164.199 239.972L144.22 223.086L265.418 212.479ZM164.101 240.25L226.829 293.267L119.644 245.784L164.101 240.25ZM232.925 374.376L181.817 402.949L204.552 349.142L227.181 295.585L232.501 368.557L232.52 368.817L232.925 374.376ZM232.818 368.314L227.514 295.558L260.622 352.828L232.818 368.314ZM305.283 239.691L357.956 275.148L253.719 339.365L227.478 294.886L265.759 212.544L305.402 239.463L305.338 239.471L305.021 239.514L305.283 239.691ZM358.203 274.991L306.128 239.631L439.293 221.628L417.272 236.119L416.922 236.349L358.203 274.991ZM439.949 221.555L509.291 236.195L417.858 236.093L439.949 221.555Z" fill="#2D378F" stroke="#A3A4B2" stroke-width="0.3"/>
<path d="M160.151 251.058L157.742 264.763L137.252 256.011L160.151 251.058Z" fill="#A3A4B2"/>
<path d="M177.556 254.316L174.648 260.884L165.584 258.106L177.556 254.316Z" fill="#A3A4B2"/>
<path d="M160.922 243.376L158.014 249.944L155.528 246.311L160.922 243.376Z" fill="#A3A4B2"/>
<path d="M172.378 263.813L169.47 270.381L160.406 267.602L172.378 263.813Z" fill="#A3A4B2"/>
<path d="M160.151 251.058L157.742 264.763L137.252 256.011L160.151 251.058Z" fill="#A3A4B2"/>
<path d="M113.861 257.983L111.452 271.688L90.9622 262.936L113.861 257.983Z" fill="#2D378F"/>
<path d="M131.266 261.242L128.359 267.81L119.295 265.032L131.266 261.242Z" fill="#2D378F"/>
<path d="M114.632 250.302L111.724 256.87L109.238 253.237L114.632 250.302Z" fill="#2D378F"/>
<path d="M126.088 270.738L123.18 277.306L114.116 274.528L126.088 270.738Z" fill="#2D378F"/>
<path d="M113.861 257.983L111.452 271.688L90.9622 262.936L113.861 257.983Z" fill="#2D378F"/>
<path d="M150.266 264.138L147.857 277.843L127.367 269.091L150.266 264.138Z" fill="#2D378F"/>
<path d="M167.671 267.397L164.763 273.965L155.699 271.186L167.671 267.397Z" fill="#2D378F"/>
<path d="M151.036 256.457L148.128 263.025L145.643 259.392L151.036 256.457Z" fill="#2D378F"/>
<path d="M162.493 276.893L159.585 283.461L150.521 280.683L162.493 276.893Z" fill="#2D378F"/>
<path d="M150.266 264.138L147.857 277.843L127.367 269.091L150.266 264.138Z" fill="#2D378F"/>
<path d="M447.703 230.706L484.561 230.763L457.033 225.204L447.703 230.706Z" fill="#A3A4B2"/>
<path d="M471.816 224.529L478.378 225.832L473.979 223.638L471.816 224.529Z" fill="#2D378F"/>
<path d="M471.816 224.529L478.378 225.832L473.979 223.638L471.816 224.529Z" fill="#2D378F"/>
<path d="M471.816 224.529L478.378 225.832L473.979 223.638L471.816 224.529Z" fill="#2D378F"/>
<path d="M471.816 224.529L478.378 225.832L473.979 223.638L471.816 224.529Z" fill="#2D378F"/>
<path d="M456.821 226.566L463.382 227.868L458.983 225.675L456.821 226.566Z" fill="#2D378F"/>
<path d="M456.821 226.566L463.382 227.868L458.983 225.675L456.821 226.566Z" fill="#2D378F"/>
<path d="M456.821 226.566L463.382 227.868L458.983 225.675L456.821 226.566Z" fill="#2D378F"/>
<path d="M456.821 226.566L463.382 227.868L458.983 225.675L456.821 226.566Z" fill="#2D378F"/>
<path d="M475.828 228.249L482.39 229.552L477.991 227.358L475.828 228.249Z" fill="#2D378F"/>
<path d="M475.828 228.249L482.39 229.552L477.991 227.358L475.828 228.249Z" fill="#2D378F"/>
<path d="M475.828 228.249L482.39 229.552L477.991 227.358L475.828 228.249Z" fill="#2D378F"/>
<path d="M475.828 228.249L482.39 229.552L477.991 227.358L475.828 228.249Z" fill="#2D378F"/>
<path d="M466.127 226.921L472.688 228.224L468.289 226.03L466.127 226.921Z" fill="#2D378F"/>
<path d="M466.127 226.921L472.688 228.224L468.289 226.03L466.127 226.921Z" fill="#2D378F"/>
<path d="M466.127 226.921L472.688 228.224L468.289 226.03L466.127 226.921Z" fill="#2D378F"/>
<path d="M466.127 226.921L472.688 228.224L468.289 226.03L466.127 226.921Z" fill="#2D378F"/>
<path d="M466.787 221.38L473.348 222.683L468.949 220.489L466.787 221.38Z" fill="#2D378F"/>
<path d="M466.787 221.38L473.348 222.683L468.949 220.489L466.787 221.38Z" fill="#2D378F"/>
<path d="M466.787 221.38L473.348 222.683L468.949 220.489L466.787 221.38Z" fill="#2D378F"/>
<path d="M466.787 221.38L473.348 222.683L468.949 220.489L466.787 221.38Z" fill="#2D378F"/>
<path d="M461.908 223.716L468.469 225.019L464.07 222.825L461.908 223.716Z" fill="#2D378F"/>
<path d="M461.908 223.716L468.469 225.019L464.07 222.825L461.908 223.716Z" fill="#2D378F"/>
<path d="M461.908 223.716L468.469 225.019L464.07 222.825L461.908 223.716Z" fill="#2D378F"/>
<path d="M461.908 223.716L468.469 225.019L464.07 222.825L461.908 223.716Z" fill="#2D378F"/>
</svg>
